# xmcd CD database file
#
# Track frame offsets:
#	150
#	24328
#	45633
#	66687
#	69966
#	84585
#	103481
#	106425
#	123973
#	148987
#	170750
#	197194
#	208166
#	227179
#	234564
#	249529
#	264757
#
# Disc length: 3750 seconds
#
# Revision: 0
# Processed by: cddbd v1.5.2PL0 Copyright (c) Steve Scherf et al.
# Submitted via: CDex 1.70beta2
#
DISCID=030ea411
DTITLE=Steve Shehan and Nabil Othmani - Awalin
DYEAR=2009
DGENRE=Jazz
TTITLE0=Azruf Ed Oragh
TTITLE1=Awalin
TTITLE2=Ekmani Man
TTITLE3=Iwitiyan (intro)
TTITLE4=Iwitiyan
TTITLE5=Ilekuman
TTITLE6=Tara Net (intro)
TTITLE7=Tara Net
TTITLE8=Elqisa
TTITLE9=Ta Hidjem
TTITLE10=Menhey Edeg
TTITLE11=Rokhi
TTITLE12=Ehaye
TTITLE13=Neq Areq Qem Hijazad (intro)
TTITLE14=Neq Areq Qem Hijazad (part1)
TTITLE15=Nek Areq Qem Hijazad (part2)
TTITLE16=Elham
EXTD=YEAR: 2009
EXTT0=
EXTT1=
EXTT2=
EXTT3=
EXTT4=
EXTT5=
EXTT6=
EXTT7=
EXTT8=
EXTT9=
EXTT10=
EXTT11=
EXTT12=
EXTT13=
EXTT14=
EXTT15=
EXTT16=
PLAYORDER=
